<svg width="12" height="12" viewBox="0 0 12 12" fill="none" xmlns="http://www.w3.org/2000/svg">
<path opacity="0.987" fill-rule="evenodd" clip-rule="evenodd" d="M5.40675 0.795807C5.9505 0.735057 6.27225 0.735057 6.8565 0.795807C7.8907 0.948878 8.84941 1.42692 9.594 2.16081C9.09084 2.63641 8.59429 3.11895 8.1045 3.60831C7.1665 2.81331 6.1195 2.62981 4.9635 3.05781C4.1155 3.44781 3.525 4.07981 3.192 4.95381C2.64783 4.54868 2.11075 4.13412 1.581 3.71031C1.54418 3.69093 1.50213 3.68383 1.461 3.69006C2.3025 2.06756 3.6175 1.10256 5.406 0.795057" fill="#F44336"/>
<path opacity="0.997" fill-rule="evenodd" clip-rule="evenodd" d="M1.45951 3.69001C1.50201 3.68351 1.54226 3.69026 1.58026 3.71026C2.11001 4.13407 2.64709 4.54864 3.19126 4.95376C3.10562 5.29431 3.05165 5.64204 3.03001 5.99251C3.04851 6.33151 3.10226 6.66426 3.19126 6.99076L1.50001 8.33701C0.763506 6.79801 0.750006 5.24901 1.45951 3.69001Z" fill="#FFC107"/>
<path opacity="0.999" fill-rule="evenodd" clip-rule="evenodd" d="M9.51374 9.96755C8.98714 9.50314 8.43583 9.0675 7.86224 8.66255C8.43724 8.25655 8.78624 7.69955 8.90924 6.99155H6.09149V5.0348C7.71649 5.0213 9.34074 5.03505 10.9642 5.07605C11.2722 6.74855 10.9165 8.25655 9.89699 9.60005C9.77577 9.72892 9.64735 9.85157 9.51374 9.96755Z" fill="#448AFF"/>
<path opacity="0.993" fill-rule="evenodd" clip-rule="evenodd" d="M3.19125 6.99158C3.80625 8.52008 4.93375 9.23358 6.57375 9.13208C7.03412 9.07878 7.47551 8.91795 7.86225 8.66258C8.43625 9.06858 8.98675 9.50358 9.51375 9.96758C8.67874 10.7179 7.61408 11.1631 6.4935 11.2306C6.23891 11.2509 5.98309 11.2509 5.7285 11.2306C3.8195 11.0056 2.41 10.0411 1.5 8.33708L3.19125 6.99158Z" fill="#43A047"/>
</svg>
