<svg width="28" height="28" viewBox="0 0 28 28" fill="none" xmlns="http://www.w3.org/2000/svg">
<path d="M14 8.16665C16.4754 8.16665 18.8493 9.14998 20.5997 10.9003C22.35 12.6507 23.3334 15.0246 23.3334 17.5C23.3334 19.9753 22.35 22.3493 20.5997 24.0996C18.8493 25.85 16.4754 26.8333 14 26.8333C11.5247 26.8333 9.1507 25.85 7.40036 24.0996C5.65002 22.3493 4.66669 19.9753 4.66669 17.5C4.66669 15.0246 5.65002 12.6507 7.40036 10.9003C9.1507 9.14998 11.5247 8.16665 14 8.16665ZM14 12.25L12.4577 15.3767L9.00669 15.8783L11.5034 18.3108L10.9142 21.7478L14 20.125L17.0859 21.7467L16.4967 18.3108L18.9934 15.8772L15.5424 15.3755L14 12.25ZM15.1667 2.33215L21 2.33332V5.83332L19.4099 7.16099C18.0906 6.46812 16.6497 6.03708 15.1667 5.89165V2.33215ZM12.8334 2.33215V5.89049C11.3507 6.03606 9.91026 6.46709 8.59135 7.15982L7.00002 5.83332V2.33332L12.8334 2.33215Z" fill="white"/>
</svg>
