<svg width="28" height="28" viewBox="0 0 28 28" fill="none" xmlns="http://www.w3.org/2000/svg">
<path d="M23.719 4.94209C23.6521 4.87134 23.5716 4.81505 23.4824 4.77666C23.3931 4.73827 23.2971 4.71858 23.2 4.7188H23.1943C22.9562 4.76863 22.7419 4.85264 22.5514 4.97084L22.56 4.96605C22.2375 5.1296 21.8959 5.31296 21.5352 5.51613C21.1433 5.73301 20.732 5.91237 20.3067 6.05184L20.2543 6.06717C19.8148 6.2239 19.3529 6.30741 18.8867 6.31442H18.8829L18.8352 6.31538C18.48 6.31538 18.1438 6.23296 17.8448 6.08538L17.8581 6.09113C17.0801 5.70714 16.277 5.37703 15.4543 5.10309L15.3076 5.05996C14.5719 4.83173 13.8061 4.71703 13.0362 4.71975H12.9743H12.9771C11.2353 4.79796 9.53665 5.2899 8.02 6.15534L8.07429 6.12659C7.69333 6.31634 7.42476 6.46296 7.24952 6.57125L7.07524 5.28613C7.37161 5.02771 7.57929 4.68167 7.6686 4.29743C7.75792 3.91318 7.72432 3.51036 7.5726 3.14647C7.42088 2.78258 7.15879 2.47622 6.82375 2.27113C6.48871 2.06604 6.09784 1.97269 5.70694 2.00442C5.31604 2.03614 4.9451 2.19132 4.64706 2.4478C4.34901 2.70427 4.13911 3.04894 4.04731 3.43259C3.95551 3.81625 3.98651 4.21928 4.13587 4.58415C4.28524 4.94903 4.54534 5.2571 4.87905 5.46438L4.88667 5.46917L7.40095 24.0465C7.47619 24.5879 7.93333 25 8.48571 25.001C8.53905 25.001 8.59238 24.9974 8.64381 24.9904L8.63809 24.9914C8.78178 24.9724 8.92031 24.925 9.0457 24.8519C9.17109 24.7788 9.28086 24.6815 9.36869 24.5655C9.45651 24.4495 9.52065 24.3171 9.55741 24.1761C9.59417 24.035 9.60282 23.8881 9.58286 23.7436L9.58381 23.7494L8.57238 16.283C10.0247 15.4679 11.6424 14.9963 13.3029 14.904L13.3324 14.903H13.341C13.9305 14.903 14.499 14.9969 15.0305 15.1713L14.9914 15.1608C15.4713 15.3051 15.9348 15.4997 16.3743 15.7415L16.3371 15.7224C16.6933 15.9246 17.1105 16.1143 17.5448 16.2677L17.6 16.2849C18.0276 16.4459 18.5219 16.5398 19.0371 16.5437H19.039C20.5753 16.4459 22.0643 15.9711 23.3762 15.1608L23.3352 15.1848C23.5105 15.0985 23.6629 14.9909 23.7924 14.8618C23.8975 14.7354 23.9494 14.5728 23.9371 14.4085V14.4104V5.46438C23.9375 5.36725 23.9182 5.27106 23.8806 5.18162C23.8429 5.09218 23.7877 5.01135 23.7181 4.944L23.719 4.94209Z" fill="#F5F5F5"/>
</svg>
