<svg width="16" height="16" viewBox="0 0 16 16" fill="none" xmlns="http://www.w3.org/2000/svg">
<path d="M7.99979 4.14282C6.75711 4.14282 6.17836 5.1344 6.17836 6.35767C6.17836 7.34661 7.22033 8.29193 7.78372 8.94619C7.89783 9.07873 8.10193 9.07873 8.21586 8.94619C8.77926 8.29193 9.82122 7.34661 9.82122 6.35767C9.82122 5.1344 9.24247 4.14282 7.99979 4.14282ZM3.21622 7.51025C3.11019 7.552 3.01929 7.62407 2.95525 7.71716C2.89121 7.81024 2.85697 7.92007 2.85693 8.03249V12.4326C2.85693 12.6316 3.06104 12.7677 3.24872 12.6939L5.71408 11.5893V7.49214C5.55622 7.21124 5.42711 6.93773 5.33461 6.67616L3.21622 7.51025ZM7.99979 10.0366C7.74854 10.0366 7.51086 9.92794 7.34783 9.73845C6.99676 9.33064 7.05193 9.29479 6.71408 8.81843V12.0176L9.28551 12.2855V8.8186C8.94765 9.29479 9.00301 9.33081 8.65176 9.73863C8.48872 9.92794 8.25104 10.0366 7.99979 10.0366ZM12.7509 6.54714L10.2855 7.65175V12.7143L12.7834 11.7308C12.8894 11.689 12.9803 11.617 13.0444 11.5239C13.1084 11.4308 13.1426 11.3209 13.1426 11.2085V6.80835C13.1426 6.60937 12.9385 6.47331 12.7509 6.54714Z" fill="white"/>
</svg>
