<svg width="32" height="32" viewBox="0 0 32 32" fill="none" xmlns="http://www.w3.org/2000/svg">
<path d="M15.9999 5.71423C12.6861 5.71423 11.1428 8.35845 11.1428 11.6205C11.1428 14.2577 13.9214 16.7785 15.4237 18.5232C15.728 18.8766 16.2723 18.8766 16.5761 18.5232C18.0785 16.7785 20.8571 14.2577 20.8571 11.6205C20.8571 8.35845 19.3137 5.71423 15.9999 5.71423ZM3.24374 14.694C2.96098 14.8054 2.71859 14.9976 2.54782 15.2458C2.37706 15.494 2.28574 15.7869 2.28564 16.0867L2.28564 27.8204C2.28564 28.3511 2.82993 28.7139 3.33041 28.517L9.90469 25.5714V14.6458C9.48374 13.8967 9.13945 13.1673 8.89279 12.4698L3.24374 14.694ZM15.9999 21.4309C15.3299 21.4309 14.6961 21.1412 14.2614 20.6359C13.3252 19.5484 13.4723 19.4528 12.5714 18.1825V26.7138L19.4285 27.4281V18.183C18.5275 19.4528 18.6752 19.5489 17.7385 20.6364C17.3037 21.1412 16.6699 21.4309 15.9999 21.4309ZM28.6695 12.1258L22.0952 15.0714V28.5714L28.7561 25.9487C29.0389 25.8374 29.2813 25.6453 29.4521 25.397C29.6229 25.1488 29.7142 24.8559 29.7142 24.5561V12.8223C29.7142 12.2917 29.1699 11.9289 28.6695 12.1258Z" fill="#F5F5F5"/>
</svg>
