<svg width="32" height="32" viewBox="0 0 32 32" fill="none" xmlns="http://www.w3.org/2000/svg">
<path d="M20.3636 15.409C22.1745 15.409 23.6255 13.9472 23.6255 12.1363C23.6255 10.3253 22.1745 8.86353 20.3636 8.86353C18.5527 8.86353 17.0909 10.3253 17.0909 12.1363C17.0909 13.9472 18.5527 15.409 20.3636 15.409ZM11.6364 15.409C13.4473 15.409 14.8982 13.9472 14.8982 12.1363C14.8982 10.3253 13.4473 8.86353 11.6364 8.86353C9.82545 8.86353 8.36364 10.3253 8.36364 12.1363C8.36364 13.9472 9.82545 15.409 11.6364 15.409ZM11.6364 17.5908C9.09455 17.5908 4 18.8672 4 21.409V23.0453C4 23.6453 4.49091 24.1363 5.09091 24.1363H18.1818C18.7818 24.1363 19.2727 23.6453 19.2727 23.0453V21.409C19.2727 18.8672 14.1782 17.5908 11.6364 17.5908ZM20.3636 17.5908C20.0473 17.5908 19.6873 17.6126 19.3055 17.6453C19.3273 17.6563 19.3382 17.6781 19.3491 17.689C20.5927 18.5944 21.4545 19.8053 21.4545 21.409V23.0453C21.4545 23.4272 21.3782 23.7981 21.2582 24.1363H26.9091C27.5091 24.1363 28 23.6453 28 23.0453V21.409C28 18.8672 22.9055 17.5908 20.3636 17.5908Z" fill="#F5F5F5"/>
</svg>
