<svg width="32" height="32" viewBox="0 0 32 32" fill="none" xmlns="http://www.w3.org/2000/svg">
<path d="M17.5998 5.59999C17.5998 5.48468 17.5748 5.37073 17.5266 5.26597C17.4784 5.16121 17.4081 5.06811 17.3206 4.99304C17.2331 4.91797 17.1304 4.86271 17.0195 4.83104C16.9086 4.79938 16.7922 4.79206 16.6782 4.80959L5.4782 6.52159C5.28938 6.55063 5.11718 6.64628 4.99275 6.79126C4.86832 6.93623 4.79988 7.12094 4.7998 7.31199V24.688C4.79988 24.879 4.86832 25.0638 4.99275 25.2087C5.11718 25.3537 5.28938 25.4494 5.4782 25.4784L16.6782 27.192C16.7922 27.2095 16.9086 27.2022 17.0195 27.1705C17.1304 27.1389 17.2331 27.0836 17.3206 27.0085C17.4081 26.9335 17.4784 26.8404 17.5266 26.7356C17.5748 26.6308 17.5998 26.5169 17.5998 26.4016V16H25.875L24.2798 17.3984C24.1297 17.5405 24.0404 17.7353 24.0307 17.9418C24.0209 18.1483 24.0916 18.3506 24.2277 18.5062C24.3639 18.6618 24.555 18.7586 24.7609 18.7764C24.9669 18.7942 25.1718 18.7315 25.3326 18.6016L28.5262 15.8016C28.6119 15.7265 28.6805 15.634 28.7275 15.5302C28.7745 15.4265 28.7989 15.3139 28.7989 15.2C28.7989 15.0861 28.7745 14.9735 28.7275 14.8697C28.6805 14.766 28.6119 14.6735 28.5262 14.5984L25.3326 11.7984C25.1731 11.6588 24.9646 11.5883 24.753 11.6024C24.5415 11.6165 24.3442 11.714 24.2046 11.8736C24.065 12.0331 23.9945 12.2416 24.0086 12.4532C24.0227 12.6647 24.1203 12.862 24.2798 13.0016L25.875 14.4H17.5998V5.59999ZM13.5998 18C13.2815 18 12.9763 17.8736 12.7513 17.6485C12.5262 17.4235 12.3998 17.1182 12.3998 16.8C12.3998 16.4817 12.5262 16.1765 12.7513 15.9515C12.9763 15.7264 13.2815 15.6 13.5998 15.6C13.9181 15.6 14.2233 15.7264 14.4483 15.9515C14.6734 16.1765 14.7998 16.4817 14.7998 16.8C14.7998 17.1182 14.6734 17.4235 14.4483 17.6485C14.2233 17.8736 13.9181 18 13.5998 18ZM19.9998 25.6H19.1998V17.6H20.7998V24.8C20.7998 25.0122 20.7155 25.2156 20.5655 25.3657C20.4155 25.5157 20.212 25.6 19.9998 25.6ZM19.1998 12.8V6.39999H19.9998C20.212 6.39999 20.4155 6.48427 20.5655 6.6343C20.7155 6.78433 20.7998 6.98782 20.7998 7.19999V12.8H19.1998Z" fill="#FF4242"/>
</svg>
