<svg width="32" height="32" viewBox="0 0 32 32" fill="none" xmlns="http://www.w3.org/2000/svg">
<path d="M7.2 24.7999C6.595 24.7999 6.07727 24.5847 5.6468 24.1542C5.21633 23.7238 5.00073 23.2057 5 22.5999V9.39995C5 8.79495 5.2156 8.27722 5.6468 7.84675C6.078 7.41628 6.59573 7.20068 7.2 7.19995H24.8C25.405 7.19995 25.9231 7.41555 26.3543 7.84675C26.7855 8.27795 27.0007 8.79568 27 9.39995V22.5999C27 23.205 26.7848 23.723 26.3543 24.1542C25.9238 24.5854 25.4057 24.8007 24.8 24.7999H7.2ZM16 16.9074C16.0917 16.9074 16.1881 16.8935 16.2893 16.8657C16.3905 16.8378 16.4866 16.7967 16.5775 16.7425L24.36 11.875C24.5067 11.7833 24.6167 11.6689 24.69 11.5318C24.7633 11.3946 24.8 11.2432 24.8 11.0775C24.8 10.7108 24.6442 10.4358 24.3325 10.2525C24.0208 10.0691 23.7 10.0783 23.37 10.28L16 14.9L8.63 10.28C8.3 10.0783 7.97917 10.0739 7.6675 10.2668C7.35583 10.4596 7.2 10.7299 7.2 11.0775C7.2 11.2608 7.23667 11.4214 7.31 11.5593C7.38333 11.6971 7.49333 11.8024 7.64 11.875L15.4225 16.7425C15.5142 16.7975 15.6106 16.8389 15.7118 16.8668C15.813 16.8946 15.9091 16.9082 16 16.9074Z" fill="#F5F5F5"/>
</svg>
