<svg width="28" height="28" viewBox="0 0 28 28" fill="none" xmlns="http://www.w3.org/2000/svg">
<path d="M3.33334 24C2.95556 24 2.63912 23.84 2.384 23.52C2.12889 23.2 2.00089 22.8044 2 22.3333C1.99912 21.8622 2.12712 21.4666 2.384 21.1466C2.64089 20.8266 2.95734 20.6666 3.33334 20.6666H24.6667C25.0444 20.6666 25.3613 20.8266 25.6173 21.1466C25.8733 21.4666 26.0009 21.8622 26 22.3333C25.9991 22.8044 25.8711 23.2005 25.616 23.5216C25.3609 23.8428 25.0444 24.0022 24.6667 24H3.33334ZM3.33334 15.6667C2.95556 15.6667 2.63912 15.5067 2.384 15.1867C2.12889 14.8667 2.00089 14.4711 2 14C1.99912 13.5289 2.12712 13.1333 2.384 12.8133C2.64089 12.4933 2.95734 12.3333 3.33334 12.3333H24.6667C25.0444 12.3333 25.3613 12.4933 25.6173 12.8133C25.8733 13.1333 26.0009 13.5289 26 14C25.9991 14.4711 25.8711 14.8672 25.616 15.1883C25.3609 15.5094 25.0444 15.6689 24.6667 15.6667H3.33334ZM3.33334 7.33333C2.95556 7.33333 2.63912 7.17333 2.384 6.85333C2.12889 6.53333 2.00089 6.13778 2 5.66666C1.99912 5.19555 2.12712 4.8 2.384 4.48C2.64089 4.16 2.95734 4 3.33334 4H24.6667C25.0444 4 25.3613 4.16 25.6173 4.48C25.8733 4.8 26.0009 5.19555 26 5.66666C25.9991 6.13778 25.8711 6.53389 25.616 6.855C25.3609 7.17611 25.0444 7.33555 24.6667 7.33333H3.33334Z" fill="white"/>
</svg>
