<svg width="28" height="28" viewBox="0 0 28 28" fill="none" xmlns="http://www.w3.org/2000/svg">
<path d="M7.33333 25V22.4444H12.6667V18.4833C11.5778 18.2491 10.6058 17.8074 9.75067 17.1583C8.89555 16.5092 8.26755 15.6944 7.86667 14.7139C6.2 14.5222 4.80578 13.825 3.684 12.6222C2.56222 11.4194 2.00089 10.0083 2 8.38889V7.11111C2 6.40833 2.26133 5.80693 2.784 5.30689C3.30667 4.80685 3.93422 4.55641 4.66667 4.55556H7.33333V2H20.6667V4.55556H23.3333C24.0667 4.55556 24.6947 4.806 25.2173 5.30689C25.74 5.80778 26.0009 6.40919 26 7.11111V8.38889C26 10.0074 25.4387 11.4185 24.316 12.6222C23.1933 13.8258 21.7991 14.5231 20.1333 14.7139C19.7333 15.6935 19.1058 16.5083 18.2507 17.1583C17.3956 17.8082 16.4231 18.2499 15.3333 18.4833V22.4444H20.6667V25H7.33333ZM7.33333 11.9667V7.11111H4.66667V8.38889C4.66667 9.19815 4.91111 9.92776 5.4 10.5777C5.88889 11.2277 6.53333 11.6907 7.33333 11.9667ZM20.6667 11.9667C21.4667 11.6898 22.1111 11.2264 22.6 10.5764C23.0889 9.92648 23.3333 9.1973 23.3333 8.38889V7.11111H20.6667V11.9667Z" fill="white"/>
</svg>
