<svg width="32" height="32" viewBox="0 0 32 32" fill="none" xmlns="http://www.w3.org/2000/svg">
<path d="M19.0937 3.93042H12.9052L12.1953 7.4822C11.6075 7.7456 11.0486 8.06918 10.5275 8.44777L7.09313 7.28579L4 12.6447L6.72226 15.0367C6.65652 15.6773 6.65652 16.3229 6.72226 16.9635L4 19.3555L7.09423 24.7144L10.5275 23.5535C11.0454 23.9288 11.6028 24.2536 12.1953 24.518L12.9052 28.0698H19.0937L19.8036 24.518C20.3914 24.2546 20.9503 23.931 21.4714 23.5524L24.9058 24.7144L28 19.3555L25.2766 16.9635C25.3424 16.3229 25.3424 15.6773 25.2766 15.0367L27.9989 12.6447L24.9047 7.28579L21.4725 8.44667C20.9514 8.06847 20.3924 7.74525 19.8047 7.4822L19.0937 3.93042ZM15.9995 20.3891C14.8354 20.3891 13.7191 19.9267 12.896 19.1036C12.0729 18.2805 11.6105 17.1641 11.6105 16.0001C11.6105 14.8361 12.0729 13.7197 12.896 12.8966C13.7191 12.0735 14.8354 11.6111 15.9995 11.6111C17.1635 11.6111 18.2798 12.0735 19.1029 12.8966C19.926 13.7197 20.3884 14.8361 20.3884 16.0001C20.3884 17.1641 19.926 18.2805 19.1029 19.1036C18.2798 19.9267 17.1635 20.3891 15.9995 20.3891Z" fill="#F5F5F5"/>
</svg>
