<svg width="28" height="28" viewBox="0 0 28 28" fill="none" xmlns="http://www.w3.org/2000/svg">
<path d="M7.125 3L12.0555 7.93046L7.93046 12.0555L3 7.125V3H7.125Z" fill="#F5F5F5"/>
<path d="M12.2223 19.9027L14.2848 21.9652L12.3402 23.9098L9.1875 20.757L7.12185 22.8227C7.12394 22.8606 7.125 22.899 7.125 22.9375C7.125 24.0765 6.20159 25 5.0625 25C3.92341 25 3 24.0765 3 22.9375C3 21.7985 3.92341 20.875 5.0625 20.875C5.10103 20.875 5.13931 20.8761 5.17731 20.8782L7.24296 18.8125L4.09023 15.6598L6.03478 13.7152L8.09728 15.7777L20.875 3H25V7.125L12.2223 19.9027Z" fill="#F5F5F5"/>
<path d="M22.9374 25C21.7984 25 20.8749 24.0765 20.8749 22.9375C20.8749 22.899 20.876 22.8606 20.8781 22.8227L16.8679 18.8125L21.9652 13.7152L23.9097 15.6598L20.757 18.8125L22.8226 20.8781C22.8606 20.8761 22.8989 20.875 22.9374 20.875C24.0765 20.875 24.9999 21.7984 24.9999 22.9375C24.9999 24.0765 24.0765 25 22.9374 25Z" fill="#F5F5F5"/>
</svg>
