<svg width="28" height="28" viewBox="0 0 28 28" fill="none" xmlns="http://www.w3.org/2000/svg">
<path d="M18.9117 9.33335H9.08835C8.70054 9.33279 8.32049 9.44207 7.99221 9.64854C7.66392 9.85501 7.40082 10.1502 7.23335 10.5C7.03731 10.9151 6.96181 11.3768 7.01544 11.8327C7.06907 12.2885 7.24968 12.7201 7.53669 13.0784L12.4484 19.0284C12.6411 19.2508 12.8794 19.4291 13.1471 19.5514C13.4148 19.6736 13.7057 19.7369 14 19.7369C14.2943 19.7369 14.5852 19.6736 14.8529 19.5514C15.1206 19.4291 15.3589 19.2508 15.5517 19.0284L20.4634 13.0784C20.7504 12.7201 20.931 12.2885 20.9846 11.8327C21.0382 11.3768 20.9627 10.9151 20.7667 10.5C20.5992 10.1502 20.3361 9.85501 20.0078 9.64854C19.6795 9.44207 19.2995 9.33279 18.9117 9.33335Z" fill="white"/>
</svg>
