<svg width="108" height="109" viewBox="0 0 108 109" fill="none" xmlns="http://www.w3.org/2000/svg">
<path d="M80.1562 46.5688C80.1562 46.5688 72.5624 40.325 68.5124 34.25C66.9937 32.0563 62.0999 32.3938 60.4124 36.6125L34.0874 46.7375L16.7062 37.4563C14.0062 35.7688 10.4624 36.95 8.94367 40.1563C7.42492 43.1938 8.26867 47.075 11.1374 48.7625L13.8374 50.2813C11.4749 49.9438 8.94367 51.125 7.76242 53.4875C6.24367 56.525 7.08742 60.4063 9.95617 62.0938L16.0312 65.6375C13.3312 63.95 9.78742 65.1313 8.26867 68.3375C6.74992 71.375 7.59367 75.2563 10.4624 76.9438C10.4624 76.9438 41.0062 95.8438 51.4687 101.413C59.7374 105.969 76.1062 108.163 86.3999 95.675C89.7749 91.2875 80.1562 46.5688 80.1562 46.5688Z" fill="#D99B57"/>
<path d="M92.8126 46.5688C87.4126 42.8563 83.7001 37.9625 81.0001 30.5375C79.9876 28.0063 76.2751 27.5 74.0814 31.7188C70.8751 37.7938 73.9126 42.6875 75.6001 44.8813L76.4439 45.8938C76.4439 45.8938 76.9501 47.75 77.7939 49.9438C73.2376 48.9313 68.1751 51.4625 64.6314 56.1875C60.9189 61.0813 52.1439 69.5188 48.4314 74.4125C43.8751 80.3188 45.0564 88.7563 50.1189 92.4688C50.1189 92.4688 76.6126 111.875 94.1626 88.0813C108 69.5188 98.2126 50.2813 92.8126 46.5688Z" fill="#FFDD67"/>
<path d="M83.8688 53.6563C86.5688 55.6813 87.2438 59.5625 85.2188 62.6C83.3625 65.6375 79.4813 66.4813 76.7813 64.4563L34.7625 34.25C32.0625 32.225 31.3875 28.3438 33.4125 25.3063C35.2688 22.2688 39.15 21.425 41.85 23.45L83.8688 53.6563Z" fill="#FFDD67"/>
<path d="M62.1 50.2812L35.2687 30.875C33.75 29.8625 32.7375 28.175 33.2437 25.6437C31.3875 29.0187 32.5687 32.3937 34.7625 34.0812L61.5937 53.4875C64.2937 55.5125 64.8 52.3062 62.1 50.2812Z" fill="#EBA352"/>
<path d="M70.2001 59.5625C72.9001 61.5875 73.5751 65.4687 71.5501 68.5062C69.6938 71.5437 65.8126 72.3875 63.1126 70.3625L21.0938 39.9875C18.3938 37.9625 17.7188 34.0812 19.7438 31.0437C21.6001 28.0062 25.4813 27.1625 28.1813 29.1875L70.2001 59.5625Z" fill="#FFDD67"/>
<path d="M54 60.2375L21.6 36.7812C20.0813 35.7687 19.0688 33.7437 19.575 31.55C17.7188 34.925 18.7313 38.6375 21.0938 40.325L53.6625 63.4437C56.1938 65.4687 56.7 62.0937 54 60.2375Z" fill="#EBA352"/>
<path d="M67.4999 73.0625C70.1999 75.0875 70.8749 78.9687 68.8499 82.0062C66.9936 85.0437 63.1124 85.8875 60.4124 83.8625L18.3936 53.4875C15.6936 51.4625 15.0186 47.5812 17.0436 44.5437C18.8999 41.5062 22.7811 40.6625 25.4811 42.6875L67.4999 73.0625Z" fill="#FFDD67"/>
<path d="M47.5874 71.0375L18.8999 50.45C17.3812 49.4375 16.3687 47.075 17.0437 44.7125C14.8499 47.9187 15.6937 52.1375 18.0562 53.825L47.0812 74.2437C49.7812 76.2687 50.2874 73.0625 47.5874 71.0375Z" fill="#EBA352"/>
<path d="M66.3187 88.25C69.0187 90.275 49.7812 92.3 47.0812 90.275L17.3812 68.8438C14.6812 66.8188 14.0062 62.9375 16.0312 59.9C17.8874 56.8625 21.7687 56.0188 24.4687 58.0438L66.3187 88.25Z" fill="#FFDD67"/>
<path d="M101.081 70.7C101.081 70.7 98.2125 85.55 86.4 94.4938C75.9375 102.425 59.7375 95.5062 51.975 90.4437C43.875 84.875 39.825 82.175 20.25 67.325C16.5375 64.4562 15.525 62.6 16.0312 59.5625C13.1625 62.6 14.6812 67.325 17.0437 69.0125L19.0687 70.3625C19.0687 70.3625 42.525 87.575 50.4562 92.975C57.7125 98.0375 76.4437 105.969 88.2562 96.5188C101.587 86.225 101.081 70.7 101.081 70.7Z" fill="#EBA352"/>
<path d="M81 51.2938C77.625 47.75 77.4563 42.6875 77.4563 42.6875L76.6125 41.675C75.2625 39.9875 73.0687 36.4438 73.9125 32.225C70.7062 38.1313 73.9125 42.8563 75.4312 44.8813L76.275 45.8938C76.275 45.8938 76.1062 47.4125 76.95 48.5938L81 51.2938Z" fill="#EBA352"/>
<path d="M63.7876 3.875L68.8501 24.4625L78.8064 5.39375L63.7876 3.875Z" fill="#42ADE2"/>
<path d="M88.7627 9.95001L81.1689 26.9938L98.8877 22.4375L88.7627 9.95001Z" fill="#42ADE2"/>
<path d="M50.9626 6.40625L55.6876 24.9688L40.1626 15.0125L50.9626 6.40625Z" fill="#42ADE2"/>
</svg>
