<svg width="17" height="16" viewBox="0 0 17 16" fill="none" xmlns="http://www.w3.org/2000/svg">
<path d="M14.2202 2.64019C14.182 2.60001 14.136 2.56805 14.085 2.54625C14.034 2.52445 13.9791 2.51327 13.9236 2.51339H13.9204C13.7843 2.54169 13.6619 2.5894 13.553 2.65652L13.5579 2.6538C13.3736 2.74668 13.1784 2.8508 12.9724 2.96618C12.7484 3.08934 12.5133 3.1912 12.2703 3.2704L12.2404 3.2791C11.9893 3.36811 11.7253 3.41553 11.4589 3.41951H11.4567L11.4295 3.42006C11.2265 3.42006 11.0344 3.37325 10.8635 3.28944L10.8711 3.29271C10.4266 3.07465 9.96762 2.88719 9.49752 2.73162L9.41371 2.70713C8.99331 2.57752 8.55568 2.51239 8.11576 2.51393H8.08038H8.08201C7.08669 2.55835 6.11602 2.83771 5.24936 3.32917L5.28038 3.31284C5.06269 3.4206 4.90922 3.50387 4.80909 3.56536L4.7095 2.83557C4.87886 2.68881 4.99752 2.49231 5.04856 2.2741C5.0996 2.0559 5.0804 1.82714 4.9937 1.6205C4.907 1.41385 4.75724 1.23988 4.56579 1.12341C4.37434 1.00694 4.15098 0.953932 3.92761 0.971949C3.70424 0.989966 3.49227 1.07809 3.32196 1.22374C3.15165 1.36938 3.03171 1.56511 2.97925 1.78298C2.9268 2.00085 2.94451 2.22972 3.02986 2.43693C3.11521 2.64413 3.26384 2.81908 3.45453 2.93679L3.45888 2.93951L4.89562 13.4892C4.93861 13.7967 5.19984 14.0307 5.51548 14.0312C5.54596 14.0312 5.57644 14.0292 5.60582 14.0252L5.60256 14.0258C5.68466 14.015 5.76382 13.9881 5.83547 13.9466C5.90713 13.9051 5.96985 13.8498 6.02004 13.7839C6.07022 13.718 6.10688 13.6429 6.12788 13.5628C6.14888 13.4827 6.15383 13.3992 6.14242 13.3172L6.14297 13.3205L5.56501 9.08046C6.39491 8.61759 7.31932 8.34978 8.26814 8.29733L8.28501 8.29679H8.2899C8.62678 8.29679 8.95167 8.35012 9.25535 8.44917L9.23303 8.44318C9.50727 8.52511 9.77213 8.63565 10.0232 8.77298L10.002 8.7621C10.2056 8.87693 10.4439 8.98468 10.6921 9.07175L10.7236 9.08155C10.968 9.17298 11.2504 9.22631 11.5449 9.22849H11.546C12.4238 9.17295 13.2747 8.90333 14.0243 8.44318L14.0009 8.45679C14.1011 8.40781 14.1881 8.34668 14.2621 8.27339C14.3222 8.20163 14.3519 8.10928 14.3449 8.01597V8.01706V2.93679C14.3451 2.88163 14.3341 2.82701 14.3125 2.77622C14.291 2.72543 14.2594 2.67952 14.2197 2.64128L14.2202 2.64019Z" fill="#9B9D9F"/>
</svg>
