<svg width="16" height="16" viewBox="0 0 16 16" fill="none" xmlns="http://www.w3.org/2000/svg">
<path d="M7.99998 11.5166L5.23331 13.1833C5.11109 13.2611 4.98331 13.2944 4.84998 13.2833C4.71664 13.2722 4.59998 13.2277 4.49998 13.15C4.39998 13.0722 4.3222 12.9751 4.26664 12.8586C4.21109 12.7422 4.19998 12.6115 4.23331 12.4666L4.96664 9.31663L2.51664 7.19997C2.40553 7.09997 2.3362 6.98597 2.30864 6.85797C2.28109 6.72997 2.28931 6.60508 2.33331 6.4833C2.37731 6.36152 2.44398 6.26152 2.53331 6.1833C2.62264 6.10508 2.74486 6.05508 2.89998 6.0333L6.13331 5.74997L7.38331 2.7833C7.43886 2.64997 7.52509 2.54997 7.64198 2.4833C7.75886 2.41663 7.8782 2.3833 7.99998 2.3833C8.12175 2.3833 8.24109 2.41663 8.35798 2.4833C8.47486 2.54997 8.56109 2.64997 8.61664 2.7833L9.86664 5.74997L13.1 6.0333C13.2555 6.05552 13.3778 6.10552 13.4666 6.1833C13.5555 6.26108 13.6222 6.36108 13.6666 6.4833C13.7111 6.60552 13.7195 6.73063 13.692 6.85863C13.6644 6.98663 13.5949 7.10041 13.4833 7.19997L11.0333 9.31663L11.7666 12.4666C11.8 12.6111 11.7889 12.7417 11.7333 12.8586C11.6778 12.9755 11.6 13.0726 11.5 13.15C11.4 13.2273 11.2833 13.2717 11.15 13.2833C11.0166 13.2949 10.8889 13.2615 10.7666 13.1833L7.99998 11.5166Z" fill="#A05AE8"/>
</svg>
