d<svg width="16" height="16" viewBox="0 0 16 16" fill="current" xmlns="http://www.w3.org/2000/svg">
<path d="M12.9999 8.38145L7.99987 13.3335L2.99988 8.38145C2.67008 8.06053 2.4103 7.67479 2.23691 7.24854C2.06351 6.82229 1.98025 6.36475 1.99237 5.90474C2.00448 5.44473 2.11172 4.99221 2.30731 4.57568C2.50291 4.15914 2.78263 3.78762 3.12887 3.4845C3.4751 3.18139 3.88035 2.95324 4.31908 2.81444C4.75782 2.67563 5.22055 2.62917 5.67812 2.67799C6.1357 2.7268 6.57821 2.86982 6.97779 3.09806C7.37738 3.32629 7.72537 3.63478 7.99987 4.00412C8.27556 3.63747 8.62397 3.33166 9.02328 3.10585C9.42258 2.88004 9.8642 2.73908 10.3205 2.6918C10.7768 2.64451 11.2379 2.69192 11.6751 2.83105C12.1122 2.97017 12.5159 3.19803 12.8609 3.50036C13.2059 3.80269 13.4848 4.17297 13.6802 4.58805C13.8755 5.00312 13.983 5.45404 13.9961 5.91259C14.0091 6.37114 13.9274 6.82745 13.756 7.25295C13.5845 7.67846 13.3271 8.064 12.9999 8.38545" fill="current" />
<path d="M4.11841 2.1787C4.64484 2.01218 5.20025 1.95672 5.74927 2.01529C6.29824 2.07388 6.8291 2.24539 7.30851 2.51919C7.5579 2.66164 7.79033 2.83053 8.00252 3.0218C8.21457 2.83275 8.44665 2.66629 8.69523 2.5257C9.17435 2.25476 9.70439 2.08572 10.2519 2.02896C10.7994 1.97222 11.353 2.02867 11.8775 2.19563C12.4021 2.36258 12.8867 2.63622 13.3007 2.99901C13.7147 3.36178 14.0494 3.80632 14.2838 4.30435C14.5181 4.80235 14.647 5.34339 14.6627 5.89354C14.6783 6.4438 14.58 6.99166 14.3743 7.50227C14.1686 8.01272 13.86 8.47534 13.4674 8.86099L13.4296 8.89419L8.46932 13.807C8.2095 14.0643 7.79099 14.0643 7.53117 13.807L2.53117 8.85513V8.85448C2.13752 8.47023 1.82701 8.00925 1.61971 7.49966C1.41164 6.98817 1.31155 6.43903 1.32609 5.88703C1.34065 5.33507 1.46965 4.79178 1.70435 4.29198C1.93906 3.79228 2.27464 3.34639 2.69002 2.98274C3.10548 2.61904 3.59197 2.34525 4.11841 2.1787ZM5.60734 3.34081C5.24138 3.30181 4.87099 3.33917 4.5201 3.45018C4.16927 3.56123 3.84516 3.7436 3.56828 3.98599C3.29129 4.22848 3.0672 4.52581 2.91073 4.85904C2.7543 5.19221 2.66848 5.55425 2.65877 5.92219C2.64908 6.29012 2.71608 6.65612 2.85474 6.99706C2.97614 7.2955 3.15057 7.56924 3.36906 7.805L3.46476 7.90396L3.46932 7.90787L7.99992 12.3948L12.5312 7.90787C12.5405 7.89862 12.5501 7.88976 12.5598 7.88117C12.8084 7.62968 13.0057 7.33183 13.1379 7.00357C13.275 6.66324 13.3404 6.29805 13.33 5.9313C13.3195 5.56462 13.2336 5.20399 13.0774 4.87206C12.9211 4.54 12.6978 4.24348 12.4218 4.00162C12.1458 3.75982 11.8228 3.57776 11.4732 3.46646C11.1235 3.35516 10.7543 3.3173 10.3892 3.35513C10.0243 3.39298 9.67086 3.50525 9.35148 3.68586C9.03211 3.86647 8.75365 4.11137 8.53312 4.40461C8.40679 4.57262 8.20817 4.67147 7.99797 4.67089C7.78788 4.67021 7.5901 4.57063 7.46476 4.40201C7.2452 4.10659 6.96731 3.85932 6.64771 3.67675C6.32804 3.49416 5.9734 3.37986 5.60734 3.34081Z" fill="current"/>
</svg>
