<svg width="12" height="12" viewBox="0 0 12 12" fill="none" xmlns="http://www.w3.org/2000/svg">
<path d="M5.98828 1.125C7.0159 1.125 7.96634 1.325 8.83959 1.72499C9.71285 2.12498 10.4032 2.6689 10.9107 3.35672C11.4181 4.04452 11.6719 4.79477 11.6719 5.60747C11.6719 6.42014 11.4181 7.17145 10.9107 7.86141C10.4032 8.55134 9.71391 9.0963 8.84276 9.49629C7.97161 9.89627 7.02012 10.0963 5.98828 10.0963C5.66266 10.0963 5.32645 10.073 4.9797 10.0264C3.47421 11.0719 2.67286 11.601 2.57559 11.6137C2.52907 11.6306 2.48466 11.6285 2.44237 11.6074C2.42545 11.5947 2.41277 11.5777 2.40431 11.5566C2.39585 11.5354 2.39163 11.5164 2.39163 11.4994V11.474C2.41702 11.3089 2.60941 10.6211 2.96887 9.41058C2.1527 9.00424 1.50463 8.46563 1.02465 7.79473C0.544676 7.12385 0.304688 6.39476 0.304688 5.60747C0.304688 4.79477 0.55842 4.04452 1.06588 3.35672C1.57335 2.6689 2.26371 2.12498 3.13697 1.72499C4.01023 1.325 4.96066 1.125 5.98828 1.125Z" fill="black"/>
</svg>
