<svg width="108" height="108" viewBox="0 0 108 108" fill="none" xmlns="http://www.w3.org/2000/svg">
<g clip-path="url(#clip0_4132_3413)">
<path d="M108 54C108 83.823 83.823 108 54 108C24.177 108 0 83.823 0 54C0 24.177 24.177 0 54 0C83.823 0 108 24.177 108 54Z" fill="#FFCC4D"/>
<path d="M66.0001 81C66.0001 89.289 60.6271 90 54.0001 90C47.3701 90 42.0001 89.289 42.0001 81C42.0001 72.717 47.3701 63 54.0001 63C60.6271 63 66.0001 72.717 66.0001 81ZM90.0001 45C89.6187 45.0003 89.2407 44.927 88.8871 44.784C73.2001 38.511 66.7711 29.061 66.5041 28.662C66.0613 28.0008 65.8993 27.1908 66.0538 26.4102C66.2082 25.6295 66.6664 24.9422 67.3276 24.4995C67.9888 24.0567 68.7988 23.8947 69.5794 24.0491C70.36 24.2036 71.0473 24.6618 71.4901 25.323C71.5471 25.404 77.2801 33.678 91.1131 39.21C91.7633 39.4669 92.3034 39.9429 92.64 40.5558C92.9765 41.1686 93.0885 41.8797 92.9565 42.5663C92.8246 43.2529 92.4569 43.8718 91.9171 44.3162C91.3773 44.7605 90.6993 45.0024 90.0001 45ZM18.0001 45C17.304 44.9977 16.6303 44.7537 16.0942 44.3097C15.5582 43.8656 15.193 43.2491 15.0612 42.5656C14.9294 41.8821 15.0391 41.174 15.3716 40.5625C15.7041 39.9509 16.2388 39.4739 16.8841 39.213C30.7201 33.681 36.4531 25.407 36.5101 25.326C36.956 24.6686 37.6439 24.2144 38.4235 24.0626C39.2032 23.9109 40.0112 24.0738 40.6711 24.516C41.3301 24.9572 41.7871 25.642 41.9418 26.4198C42.0964 27.1977 41.9362 28.0051 41.4961 28.665C41.2291 29.064 34.8001 38.514 19.1161 44.787C18.7608 44.9273 18.3822 44.9996 18.0001 45Z" fill="#664500"/>
<path d="M72 48H84V105L72 104.862V48ZM24 105L36 104.862V48H24V105Z" fill="#5DADEC"/>
<path d="M44.9971 54C44.5471 54 44.0881 53.898 43.6591 53.685C33.1231 48.417 22.4491 53.631 22.3441 53.685C21.9917 53.8613 21.608 53.9665 21.2149 53.9945C20.8219 54.0225 20.4272 53.9729 20.0533 53.8483C19.6795 53.7238 19.3338 53.5269 19.0361 53.2688C18.7383 53.0106 18.4944 52.6964 18.3181 52.344C18.1418 51.9916 18.0366 51.6079 18.0086 51.2149C17.9806 50.8219 18.0302 50.4271 18.1547 50.0533C18.2793 49.6794 18.4762 49.3338 18.7343 49.036C18.9924 48.7383 19.3067 48.4943 19.6591 48.318C20.2051 48.048 33.1531 41.727 46.3441 48.318C46.9482 48.6208 47.4325 49.1187 47.7183 49.7311C48.0041 50.3435 48.0748 51.0345 47.919 51.692C47.7631 52.3496 47.3897 52.9353 46.8594 53.3542C46.3291 53.7731 45.6729 54.0006 44.9971 54ZM86.9971 54C86.5471 54 86.0881 53.898 85.6591 53.685C75.1201 48.417 64.4491 53.631 64.3441 53.685C63.9917 53.8613 63.608 53.9665 63.2149 53.9945C62.8219 54.0225 62.4272 53.9729 62.0533 53.8483C61.6795 53.7238 61.3338 53.5269 61.0361 53.2688C60.7383 53.0106 60.4944 52.6964 60.3181 52.344C60.1418 51.9916 60.0366 51.6079 60.0086 51.2149C59.9805 50.8219 60.0302 50.4271 60.1547 50.0533C60.2793 49.6794 60.4762 49.3338 60.7343 49.036C60.9924 48.7383 61.3067 48.4943 61.6591 48.318C62.2051 48.048 75.1621 41.73 88.3441 48.318C88.9482 48.6208 89.4325 49.1187 89.7183 49.7311C90.0041 50.3435 90.0748 51.0345 89.919 51.692C89.7631 52.3496 89.3897 52.9353 88.8594 53.3542C88.3291 53.7731 87.6729 54.0006 86.9971 54Z" fill="#664500"/>
<path d="M54 108C83.8234 108 108 105.314 108 102C108 98.6863 83.8234 96 54 96C24.1766 96 0 98.6863 0 102C0 105.314 24.1766 108 54 108Z" fill="#5DADEC"/>
<path d="M54 87C58.9706 87 63 84.3137 63 81C63 77.6863 58.9706 75 54 75C49.0294 75 45 77.6863 45 81C45 84.3137 49.0294 87 54 87Z" fill="#E75A70"/>
</g>
<defs>
<clipPath id="clip0_4132_3413">
<rect width="108" height="108" fill="white"/>
</clipPath>
</defs>
</svg>
