<svg width="32" height="32" viewBox="0 0 32 32" fill="none" xmlns="http://www.w3.org/2000/svg">
<path d="M7.2 25C6.595 25 6.07727 24.7799 5.6468 24.3396C5.21633 23.8994 5.00073 23.3695 5 22.75V9.25C5 8.63125 5.2156 8.10175 5.6468 7.6615C6.078 7.22125 6.59573 7.00075 7.2 7H24.8C25.405 7 25.9231 7.2205 26.3543 7.6615C26.7855 8.1025 27.0007 8.632 27 9.25V22.75C27 23.3687 26.7848 23.8986 26.3543 24.3396C25.9238 24.7806 25.4057 25.0007 24.8 25H7.2ZM16 16.9281C16.0917 16.9281 16.1881 16.9139 16.2893 16.8854C16.3905 16.8569 16.4866 16.8149 16.5775 16.7594L24.36 11.7812C24.5067 11.6875 24.6167 11.5705 24.69 11.4302C24.7633 11.29 24.8 11.1351 24.8 10.9656C24.8 10.5906 24.6442 10.3094 24.3325 10.1219C24.0208 9.93437 23.7 9.94375 23.37 10.15L16 14.875L8.63 10.15C8.3 9.94375 7.97917 9.93925 7.6675 10.1365C7.35583 10.3337 7.2 10.6101 7.2 10.9656C7.2 11.1531 7.23667 11.3174 7.31 11.4584C7.38333 11.5994 7.49333 11.707 7.64 11.7812L15.4225 16.7594C15.5142 16.8156 15.6106 16.858 15.7118 16.8865C15.813 16.915 15.9091 16.9289 16 16.9281Z" fill="#F5F5F5"/>
</svg>
