<svg width="28" height="28" viewBox="0 0 28 28" fill="none" xmlns="http://www.w3.org/2000/svg">
<path d="M13.3407 20.7762L21.476 12.6408C20.1075 12.0691 18.8644 11.2342 17.8176 10.1835C16.7664 9.13642 15.9311 7.89303 15.3592 6.52397L7.22384 14.6593C6.58917 15.294 6.27128 15.6118 5.99849 15.9616C5.67663 16.3746 5.4004 16.8213 5.17462 17.2937C4.98432 17.6941 4.84243 18.1209 4.55864 18.9722L3.06049 23.4634C2.99154 23.669 2.98131 23.8898 3.03095 24.1009C3.08059 24.312 3.18814 24.5051 3.3415 24.6585C3.49486 24.8119 3.68796 24.9194 3.89909 24.969C4.11022 25.0187 4.33101 25.0085 4.53664 24.9395L9.02778 23.4414C9.88025 23.1576 10.3059 23.0157 10.7063 22.8254C11.1808 22.5995 11.6248 22.3249 12.0384 22.0015C12.3882 21.7287 12.706 21.4108 13.3407 20.7762ZM23.7332 10.3837C24.5443 9.57258 25 8.47243 25 7.32529C25 6.17815 24.5443 5.078 23.7332 4.26685C22.922 3.4557 21.8218 3 20.6747 3C19.5276 3 18.4274 3.4557 17.6163 4.26685L16.6406 5.24251L16.6824 5.36461C17.1631 6.74042 17.9499 7.9891 18.9835 9.01648C20.0416 10.081 21.334 10.8834 22.7575 11.3594L23.7332 10.3837Z" fill="#F5F5F5"/>
</svg>
