<svg width="32" height="32" viewBox="0 0 32 32" fill="none" xmlns="http://www.w3.org/2000/svg">
<path d="M16.0002 9.33328C18.8291 9.33328 21.5422 10.4571 23.5426 12.4575C25.543 14.4579 26.6668 17.171 26.6668 20C26.6668 22.8289 25.543 25.542 23.5426 27.5424C21.5422 29.5428 18.8291 30.6666 16.0002 30.6666C13.1712 30.6666 10.4581 29.5428 8.45769 27.5424C6.4573 25.542 5.3335 22.8289 5.3335 20C5.3335 17.171 6.4573 14.4579 8.45769 12.4575C10.4581 10.4571 13.1712 9.33328 16.0002 9.33328ZM16.0002 14L14.2375 17.5733L10.2935 18.1466L13.1468 20.9266L12.4735 24.8546L16.0002 23L19.5268 24.8533L18.8535 20.9266L21.7068 18.1453L17.7628 17.572L16.0002 14ZM17.3335 2.66528L24.0002 2.66662V6.66662L22.1828 8.18395C20.6751 7.3921 19.0284 6.89949 17.3335 6.73328V2.66528ZM14.6668 2.66528V6.73195C12.9724 6.89832 11.3261 7.39093 9.81883 8.18262L8.00016 6.66662V2.66662L14.6668 2.66528Z" fill="#F5F5F5"/>
</svg>
