<svg width="32" height="32" viewBox="0 0 32 32" fill="none" xmlns="http://www.w3.org/2000/svg">
<path d="M23.4373 5.90917L20.7707 4.50917C18.4293 3.28117 17.2587 2.6665 16 2.6665C14.7413 2.6665 13.5707 3.27984 11.2293 4.50917L10.8013 4.7345L22.6987 11.5332L28.0533 8.85317C27.192 7.87717 25.8027 7.14784 23.4373 5.9065M28.9973 10.6185L23.6667 13.2852V17.3332C23.6667 17.5984 23.5613 17.8527 23.3738 18.0403C23.1862 18.2278 22.9319 18.3332 22.6667 18.3332C22.4014 18.3332 22.1471 18.2278 21.9595 18.0403C21.772 17.8527 21.6667 17.5984 21.6667 17.3332V14.2852L17 16.6185V29.2052C17.9573 28.9665 19.0467 28.3958 20.7707 27.4905L23.4373 26.0905C26.3053 24.5852 27.74 23.8332 28.5373 22.4798C29.3333 21.1278 29.3333 19.4438 29.3333 16.0798V15.9238C29.3333 13.3998 29.3333 11.8212 28.9973 10.6185ZM15 29.2052V16.6185L3.00266 10.6185C2.66666 11.8212 2.66666 13.3998 2.66666 15.9212V16.0772C2.66666 19.4438 2.66666 21.1278 3.46266 22.4798C4.25999 23.8332 5.69466 24.5865 8.56266 26.0918L11.2293 27.4905C12.9533 28.3958 14.0427 28.9665 15 29.2052ZM3.94666 8.8545L16 14.8812L20.548 12.6078L8.69999 5.83717L8.56266 5.90917C6.19866 7.14917 4.80799 7.8785 3.94666 8.85584" fill="#F5F5F5"/>
</svg>
